<?xml version="1.0" encoding="UTF-8" ?>
<!DOCTYPE svg PUBLIC "-//W3C//DTD SVG 1.1//EN" "http://www.w3.org/Graphics/SVG/1.1/DTD/svg11.dtd">
<svg width="594pt" height="218pt" viewBox="0 0 594 218" version="1.1" xmlns="http://www.w3.org/2000/svg">
<g id="#333333ff">
<path fill="#333333" opacity="1.00" d=" M 104.99 0.00 L 112.62 0.00 C 136.84 0.97 160.68 10.04 179.20 25.71 C 200.42 43.43 214.30 69.56 217.29 97.02 C 219.97 120.38 214.67 144.51 202.63 164.69 C 183.92 196.93 147.58 217.68 110.37 218.00 L 106.90 218.00 C 80.69 217.41 54.83 207.15 35.52 189.39 C 13.81 169.84 0.91 141.21 0.00 112.06 L 0.00 107.69 C 0.24 96.15 2.14 84.63 5.86 73.70 C 6.39 72.39 6.85 70.71 8.44 70.36 C 10.52 69.63 13.09 71.55 12.52 73.80 C 11.98 76.89 10.75 79.80 9.98 82.83 C 6.57 95.59 5.78 109.01 7.42 122.11 C 9.92 142.99 19.38 162.80 33.53 178.30 C 39.68 172.16 45.82 166.03 51.94 159.87 C 48.76 152.81 46.95 145.22 46.26 137.51 C 44.60 119.99 38.33 103.04 28.56 88.43 C 17.96 72.30 15.22 50.51 23.94 32.97 C 29.04 22.53 38.46 14.06 49.74 10.96 C 61.82 7.77 75.13 10.60 85.24 17.81 C 99.10 27.41 107.91 43.51 109.39 60.23 C 110.38 71.89 113.00 83.43 117.62 94.21 C 137.87 74.00 158.09 53.76 178.31 33.52 C 159.37 16.08 133.76 6.14 107.98 6.59 C 102.63 6.46 97.35 7.62 92.02 7.60 C 89.03 7.23 88.69 2.50 91.49 1.62 C 95.89 0.46 100.48 0.39 104.99 0.00 M 44.90 19.90 C 35.87 24.48 29.78 33.50 27.07 43.08 C 23.68 54.28 25.17 66.56 29.89 77.15 C 32.05 82.06 35.23 86.41 37.91 91.03 C 46.31 105.33 51.44 121.51 52.96 138.03 C 53.47 143.80 54.79 149.49 56.94 154.88 C 69.40 142.45 81.83 130.00 94.27 117.55 C 89.64 108.22 86.71 98.17 84.50 88.02 C 80.60 88.53 76.85 89.76 72.97 90.34 C 70.24 90.02 69.23 86.14 71.46 84.56 C 75.13 82.79 79.23 82.31 83.19 81.56 C 82.46 77.60 81.72 73.64 80.97 69.69 C 72.40 70.81 64.21 73.91 56.75 78.21 C 63.05 87.23 67.37 97.50 69.84 108.20 C 72.83 107.23 75.73 105.86 78.85 105.37 C 81.80 105.35 83.01 109.90 80.35 111.25 C 77.40 112.75 74.17 113.59 71.08 114.74 C 72.04 121.82 73.38 128.87 74.13 135.98 C 73.68 139.19 68.54 139.42 67.87 136.22 C 66.34 129.79 65.78 123.17 64.67 116.65 C 61.75 117.29 58.84 118.10 55.85 118.33 C 53.02 118.11 52.02 114.02 54.39 112.49 C 57.29 111.30 60.43 110.87 63.47 110.19 C 62.30 105.24 60.81 100.38 58.95 95.65 C 55.69 96.69 52.55 98.22 49.14 98.73 C 46.46 98.64 45.16 94.96 47.14 93.18 C 49.92 91.51 53.14 90.79 56.15 89.67 C 54.48 86.77 52.71 83.94 50.85 81.17 C 47.96 82.16 45.14 83.41 42.12 83.92 C 39.35 83.86 37.99 79.88 40.25 78.24 C 42.46 76.94 44.97 76.27 47.37 75.41 C 45.44 71.47 43.76 67.40 42.32 63.25 C 39.57 64.02 36.86 65.09 33.99 65.30 C 31.37 64.89 30.36 61.15 32.53 59.56 C 35.06 58.31 37.84 57.71 40.52 56.91 C 38.76 48.72 37.54 40.31 38.02 31.91 C 38.22 28.28 44.38 28.43 44.28 32.13 C 44.55 46.03 46.71 60.19 53.30 72.61 C 61.46 67.92 70.39 64.53 79.73 63.23 C 78.59 57.01 76.17 51.11 72.91 45.70 C 68.58 47.07 64.41 49.00 59.96 50.00 C 56.85 50.47 55.20 45.56 58.09 44.14 C 61.58 42.39 65.42 41.48 69.05 40.09 C 66.28 36.51 63.41 33.02 60.17 29.85 C 58.95 28.46 57.18 27.11 57.39 25.04 C 57.78 22.77 60.86 21.38 62.58 23.12 C 67.38 27.34 71.34 32.40 75.26 37.42 C 77.89 36.01 80.38 34.32 83.19 33.29 C 85.90 32.60 88.09 36.16 86.39 38.33 C 84.18 40.29 81.42 41.46 78.89 42.93 C 82.16 48.51 84.67 54.54 85.99 60.89 C 90.97 58.00 96.31 55.74 101.87 54.21 C 98.55 39.08 88.49 25.08 73.94 19.06 C 64.79 14.87 53.78 15.17 44.90 19.90 M 38.18 182.97 C 47.97 192.29 59.53 199.80 72.19 204.61 C 94.09 213.03 118.90 213.63 141.18 206.28 C 164.96 198.54 185.45 181.54 197.92 159.91 C 209.15 140.53 213.48 117.37 210.47 95.21 C 207.75 73.89 197.83 53.67 182.96 38.18 C 134.70 86.44 86.43 134.70 38.18 182.97 M 87.31 67.72 C 88.05 71.70 88.79 75.68 89.52 79.66 C 92.65 78.35 95.70 76.66 99.08 76.12 C 101.76 76.31 103.12 80.21 100.82 81.81 C 97.64 83.58 94.13 84.67 90.88 86.32 C 92.83 95.33 95.30 104.28 99.19 112.67 C 103.33 108.55 107.47 104.44 111.60 100.32 C 108.76 101.58 106.06 103.29 103.01 104.03 C 100.26 104.27 98.56 100.44 100.63 98.58 C 103.62 96.51 107.10 95.31 110.32 93.67 C 106.22 83.13 103.86 71.98 102.84 60.73 C 97.37 62.34 92.17 64.75 87.31 67.72 Z" />
<path fill="#333333" opacity="1.00" d=" M 129.61 116.18 C 138.72 108.55 149.93 102.86 161.94 102.13 C 168.77 101.66 176.05 103.16 181.40 107.64 C 182.87 108.66 182.95 110.63 182.10 112.07 C 171.99 134.03 156.66 153.71 137.45 168.42 C 135.59 170.40 131.81 168.69 132.01 166.01 C 132.04 164.17 133.80 163.14 134.99 162.03 C 152.23 148.58 165.96 130.82 175.36 111.13 C 166.12 106.17 155.05 108.98 146.06 113.13 C 133.63 118.82 123.99 130.02 120.19 143.15 C 117.84 151.22 116.67 160.22 119.91 168.21 C 122.65 174.87 129.94 178.77 136.98 178.42 C 151.61 177.90 165.53 169.93 174.21 158.26 C 181.07 148.36 184.73 136.00 183.08 123.96 C 182.54 122.00 183.71 119.48 185.98 119.57 C 187.99 119.25 189.36 121.28 189.45 123.08 C 191.17 134.62 188.11 146.45 182.75 156.67 C 176.36 168.99 164.52 177.81 151.59 182.34 C 141.78 185.69 130.15 186.26 121.20 180.29 C 113.69 186.69 103.85 190.45 93.93 189.93 C 80.14 189.47 67.33 181.74 58.91 171.06 C 57.04 169.33 58.47 165.65 61.01 165.62 C 63.00 165.39 64.11 167.37 65.35 168.56 C 72.62 177.26 83.50 183.23 94.95 183.48 C 102.83 183.63 110.50 180.57 116.56 175.63 C 114.38 172.00 112.80 168.06 111.96 163.91 C 111.74 166.21 111.64 168.56 110.90 170.77 C 109.52 173.66 104.50 172.27 104.98 169.03 C 105.53 162.13 106.23 155.20 105.44 148.28 C 99.40 148.46 93.55 149.95 87.89 151.96 C 84.59 153.25 82.28 147.96 85.30 146.29 C 91.13 143.24 97.79 142.36 104.25 141.75 C 103.23 137.39 101.32 133.32 100.12 129.03 C 99.54 125.93 104.48 124.09 105.89 126.98 C 109.38 134.04 111.26 141.86 112.01 149.69 C 113.62 139.22 118.24 129.38 124.77 121.09 C 122.97 117.37 120.48 114.05 118.58 110.40 C 117.14 107.64 121.00 104.61 123.38 106.59 C 125.89 109.48 127.50 113.01 129.61 116.18 Z" />
<path fill="#333333" opacity="1.00" d=" M 284.40 185.99 C 284.41 161.23 284.39 136.47 284.41 111.70 C 288.52 111.70 292.63 111.70 296.75 111.70 C 296.75 136.47 296.74 161.23 296.75 185.99 C 292.63 186.00 288.51 186.00 284.40 185.99 Z" />
<path fill="#333333" opacity="1.00" d=" M 310.40 185.99 C 310.41 161.23 310.39 136.47 310.41 111.70 C 314.52 111.69 318.63 111.70 322.74 111.71 C 322.76 136.47 322.74 161.23 322.75 185.99 C 318.63 186.00 314.51 186.00 310.40 185.99 Z" />
<path fill="#333333" opacity="1.00" d=" M 429.11 127.10 C 436.23 117.05 449.02 112.50 461.01 113.03 C 470.13 113.01 479.14 116.32 486.00 122.34 C 484.31 124.89 482.94 127.74 480.68 129.86 C 478.57 130.90 476.52 129.25 474.67 128.40 C 467.14 123.96 457.46 123.10 449.32 126.34 C 441.53 129.53 436.86 137.71 436.13 145.85 C 435.07 155.20 437.48 165.93 445.47 171.72 C 453.69 177.65 464.94 176.97 473.85 172.99 C 473.85 168.61 473.85 164.23 473.85 159.84 C 470.25 159.71 466.49 160.39 463.03 159.23 C 461.06 156.55 462.34 152.85 462.00 149.75 C 470.02 149.75 478.03 149.74 486.04 149.75 C 486.05 159.50 486.04 169.25 486.05 179.00 C 477.10 185.40 465.73 187.36 454.94 186.53 C 446.20 185.89 437.66 181.99 431.71 175.52 C 419.88 162.59 419.05 141.28 429.11 127.10 Z" />
<path fill="#333333" opacity="1.00" d=" M 208.31 185.98 C 217.78 161.89 227.22 137.79 236.70 113.70 C 241.28 113.70 245.86 113.70 250.45 113.70 C 259.93 137.79 269.37 161.89 278.84 185.99 C 274.92 185.92 270.97 186.27 267.08 185.77 C 265.10 185.40 264.22 183.32 263.49 181.68 C 261.78 177.22 260.24 172.69 258.56 168.21 C 248.57 168.20 238.58 168.19 228.59 168.21 C 226.92 172.69 225.37 177.22 223.66 181.69 C 222.92 183.38 221.95 185.49 219.91 185.79 C 216.06 186.25 212.18 185.92 208.31 185.98 M 232.06 158.70 C 239.73 158.70 247.41 158.70 255.09 158.70 C 251.28 147.83 246.87 137.17 243.54 126.14 C 240.38 137.22 235.85 147.84 232.06 158.70 Z" />
<path fill="#333333" opacity="1.00" d=" M 336.25 143.21 C 343.42 133.46 358.37 131.15 368.52 137.44 C 375.86 142.12 378.74 151.54 377.77 159.85 C 377.51 162.24 374.77 161.82 373.04 161.92 C 363.15 161.90 353.26 161.89 343.38 161.91 C 343.96 165.93 344.63 170.30 347.60 173.34 C 351.00 176.94 356.40 177.73 361.08 176.85 C 364.96 176.17 368.11 173.50 371.94 172.70 C 374.55 173.59 375.78 176.43 377.55 178.36 C 370.31 186.09 358.60 188.28 348.61 185.61 C 341.06 183.62 335.04 177.40 332.80 169.99 C 330.07 161.18 330.58 150.80 336.25 143.21 M 350.20 144.12 C 346.20 146.01 344.60 150.43 343.66 154.44 C 351.43 154.46 359.20 154.46 366.98 154.44 C 366.52 151.09 365.85 147.30 362.94 145.16 C 359.48 142.09 354.19 142.31 350.20 144.12 Z" />
<path fill="#333333" opacity="1.00" d=" M 398.24 143.96 C 401.18 139.43 405.19 134.77 410.88 134.03 C 413.78 133.38 416.67 134.24 419.32 135.37 C 418.67 138.72 418.38 142.15 417.40 145.43 C 416.05 147.10 413.66 145.74 411.89 145.88 C 405.04 144.63 398.01 151.09 398.92 158.02 C 398.99 167.34 398.93 176.67 398.95 186.00 C 394.83 186.00 390.72 186.00 386.60 186.00 C 386.60 168.90 386.59 151.80 386.60 134.71 C 389.87 134.95 393.56 133.99 396.57 135.49 C 398.06 138.02 397.73 141.16 398.24 143.96 Z" />
<path fill="#333333" opacity="1.00" d=" M 498.20 143.28 C 505.38 133.45 520.42 131.12 530.59 137.48 C 537.90 142.19 540.76 151.60 539.76 159.90 C 539.46 162.27 536.70 161.80 534.99 161.92 C 525.12 161.90 515.25 161.89 505.38 161.91 C 505.95 165.74 506.54 169.86 509.19 172.88 C 512.50 176.82 518.15 177.78 522.99 176.87 C 526.91 176.21 530.08 173.50 533.94 172.70 C 536.55 173.59 537.78 176.43 539.56 178.36 C 532.30 186.10 520.55 188.30 510.54 185.59 C 503.02 183.59 497.03 177.38 494.80 169.98 C 492.08 161.20 492.58 150.86 498.20 143.28 M 512.21 144.11 C 508.21 146.00 506.60 150.42 505.66 154.44 C 513.42 154.46 521.19 154.45 528.95 154.44 C 528.52 151.08 527.86 147.28 524.92 145.14 C 521.46 142.09 516.20 142.32 512.21 144.11 Z" />
<path fill="#333333" opacity="1.00" d=" M 560.20 140.93 C 566.87 133.65 579.29 131.17 587.24 137.76 C 591.61 141.52 593.19 147.51 593.26 153.08 C 593.36 164.05 593.27 175.02 593.30 186.00 C 589.18 186.00 585.07 186.00 580.95 186.00 C 580.94 175.65 580.97 165.31 580.95 154.97 C 580.93 151.37 580.55 147.00 577.20 144.88 C 571.65 141.67 565.08 144.78 560.93 148.85 C 560.98 161.23 560.93 173.62 560.95 186.00 C 556.83 186.00 552.71 186.00 548.60 186.00 C 548.60 168.90 548.59 151.80 548.60 134.71 C 551.66 134.79 554.83 134.32 557.82 135.17 C 559.67 136.43 559.56 138.98 560.20 140.93 Z" />
<path fill="#333333" opacity="1.00" d=" M 88.45 160.70 C 90.60 160.49 93.28 159.15 95.09 160.93 C 96.74 162.32 95.97 165.30 93.91 165.79 C 90.37 166.83 86.71 167.53 83.05 167.95 C 80.19 168.10 78.82 163.87 81.40 162.45 C 83.67 161.57 86.08 161.19 88.45 160.70 Z" />
</g>
</svg>
